<svg xmlns="http://www.w3.org/2000/svg" viewBox="0 0 141 141" class="svg-account"><path d="M70.5 10.5c33.1 0 60 26.9 60 60s-26.9 60-60 60 -60-26.9-60-60S37.4 10.5 70.5 10.5M70.5 0.5c-38.7 0-70 31.3-70 70s31.3 70 70 70c38.7 0 70-31.3 70-70S109.2 0.5 70.5 0.5L70.5 0.5z"/><path d="M70.8 86.5c8.3 0 16.4 3.8 22.8 10.6 5.6 6 9.5 13.9 11.2 22.6 -10 7-22 10.8-34.3 10.8 -12.1 0-23.9-3.7-33.8-10.4 1.7-8.8 5.5-16.8 11.2-22.9C54.2 90.3 62.4 86.5 70.8 86.5M70.8 76.5c-23.3 0-42.4 21-44.8 48 12.1 10 27.6 16 44.5 16 17.1 0 32.8-6.2 45-16.4C113 97.4 93.9 76.5 70.8 76.5L70.8 76.5z"/><path d="M70.8 41.5c6.9 0 12.5 5.8 12.5 13s-5.6 13-12.5 13 -12.5-5.8-12.5-13S63.9 41.5 70.8 41.5M70.8 31.5c-12.4 0-22.5 10.3-22.5 23s10.1 23 22.5 23 22.5-10.3 22.5-23S83.2 31.5 70.8 31.5L70.8 31.5z"/></svg>