<svg xmlns="http://www.w3.org/2000/svg" viewBox="0 0 80 80" class="svg-account icon"><path d="M40 5c19.3 0 35 15.7 35 35S59.3 75 40 75 5 59.3 5 40 20.7 5 40 5M40 0C17.9 0 0 17.9 0 40s17.9 40 40 40 40-17.9 40-40S62.1 0 40 0L40 0z"/><path d="M40 51.9c9 0 16.2 8.2 16.2 18.2 0 0.3 0 0.6 0 0.9 -5 2.6-10.5 4-16.2 4s-11.2-1.4-16.2-4c0-0.3 0-0.6 0-0.9C23.8 60.1 31 51.9 40 51.9M40 46.9c-11.7 0-21.2 10.4-21.2 23.2 0 1.4 0.1 2.7 0.3 4C25.2 77.8 32.3 80 40 80s14.8-2.2 20.9-5.9c0.2-1.3 0.3-2.6 0.3-4C61.2 57.3 51.7 46.9 40 46.9L40 46.9z"/><path d="M40.5 28.2c4.1 0 7.3 3.3 7.3 7.3s-3.3 7.3-7.3 7.3 -7.3-3.3-7.3-7.3S36.4 28.2 40.5 28.2M40.5 23.2c-6.8 0-12.3 5.5-12.3 12.3 0 6.8 5.5 12.3 12.3 12.3 6.8 0 12.3-5.5 12.3-12.3C52.8 28.7 47.3 23.2 40.5 23.2L40.5 23.2z"/></svg>