<svg xmlns="http://www.w3.org/2000/svg" viewBox="0 0 81 70.5" class="svg-env"><path d="M3.1 69c-0.9 0-1.6-0.7-1.6-1.6V19.6C1.5 18.7 2.2 18 3.1 18h74.9c0.9 0 1.6 0.7 1.6 1.6v47.9c0 0.9-0.7 1.6-1.6 1.6H3.1z" fill="#FFF"/><path d="M77.9 19.5c0 0 0.1 0 0.1 0.1v47.9c0 0 0 0.1-0.1 0.1H3.1C3 67.5 3 67.5 3 67.4V19.6c0 0 0-0.1 0.1-0.1H77.9M77.9 16.5H3.1C1.4 16.5 0 17.9 0 19.6v47.9c0 1.7 1.4 3.1 3.1 3.1h74.9c1.7 0 3.1-1.4 3.1-3.1V19.6C81 17.9 79.6 16.5 77.9 16.5L77.9 16.5z" class="line"/><path d="M39.7 46.1L1.2 21.5c-0.7-0.4-0.9-1.4-0.5-2.1l0 0c0.4-0.7 1.3-1 2-0.5l37 23.6c0.5 0.3 1.1 0.3 1.5 0l37-23.6c0.7-0.4 1.6-0.2 2 0.5l0 0c0.4 0.7 0.2 1.7-0.5 2.1L41.3 46.1C40.8 46.4 40.2 46.4 39.7 46.1z" class="line"/><line x1="2.5" y1="67.5" x2="30.5" y2="39.5" class="a"/><line x1="50.5" y1="39.5" x2="78.5" y2="67.5" class="a"/><path d="M71 4.1v20.8L41.1 44.3c-0.5 0.3-1.1 0.3-1.6 0L10 25.2V4.1C10 3 11 2 12.1 2H68.9C70.1 2 71 3 71 4.1z" style="fill:#FFF;stroke-width:4;stroke:#305c69"/><path d="M45 13.5H25.1c-0.8 0-1.5-0.7-1.5-1.5v0c0-0.8 0.7-1.5 1.5-1.5H45c0.8 0 1.5 0.7 1.5 1.5v0C46.5 12.8 45.8 13.5 45 13.5z" class="line"/><path d="M55.1 21.5h-30c-0.8 0-1.5-0.7-1.5-1.5v0c0-0.8 0.7-1.5 1.5-1.5h30c0.8 0 1.5 0.7 1.5 1.5v0C56.6 20.8 55.9 21.5 55.1 21.5z" class="line"/><path d="M52.5 29.5H25.1c-0.8 0-1.5-0.7-1.5-1.5v0c0-0.8 0.7-1.5 1.5-1.5H52.5c0.8 0 1.5 0.7 1.5 1.5v0C54 28.8 53.3 29.5 52.5 29.5z" class="line"/></svg>